{"title":"Scott.Pilgrim.Vs.The.World.2010.BRRip.720p.H264.Feel-Free","uid":5920054,"size":1598516135,"categoryP":"video","categoryS":"hd___movies","magnet":"?xt=urn:btih:c8172935cf3d7ee3867a48136e949a2cf6fd5ead&amp;dn=Scott.Pilgrim.Vs.The.World.2010.BRRip.720p.H264.Feel-Free&amp;tr=udp%3A%2F%2Ftracker.openbittorrent.com%3A80&amp;tr=udp%3A%2F%2Fopen.demonii.com%3A1337&amp;tr=udp%3A%2F%2Ftracker.coppersurfer.tk%3A6969&amp;tr=udp%3A%2F%2Fexodus.desync.com%3A6969","seeders":0,"leechers":1,"uploader":"deffjam555","files":11,"time":1288373817,"description":"cover\n\nGenre:Action | Adventure | Comedy | Fantasy\nLanguage:English\nIMDb:http://www.imdb.com/title/tt0446029/\nSource:720p BluRay x264-Felony\n\nGeneral\nComplete name :Scott.Pilgrim.Vs.The.World.2010.BRRip.720p.H264.Feel-Free\nFormat : MPEG-4\nFormat profile : Base Media\nCodec ID : isom\nFile size : 1.49 GiB\nDuration : 1h 52mn\nOverall bit rate : 1 895 Kbps\nVideo #1\nCodec ID : avc1\nCodec ID/Info : Advanced Video Coding\nDuration : 1h 52mn\nBit rate mode : Variable\nBit rate : 1 572 Kbps\nWidth : 1 280 pixels\nHeight : 688 pixels\nDisplay aspect ratio : 1.860\nFrame rate mode : Constant\nFrame rate : 24.390 fps\nResolution : 24 bits\nColorimetry : 4:2:0\nScan type : Progressive\nBits/(Pixel*Frame) : 0.073\nStream size : 1.23 GiB (83%)\nAudio #2\nID : 2\nFormat : AAC\nFormat/Info : Advanced Audio Codec\nFormat version : Version 4\nFormat profile : LC\nFormat settings, SBR : No\nCodec ID : 40\nDuration : 1h 52mn\nBit rate mode : Variable\nBit rate : 320 Kbps\nChannel(s) : 6 channels\nChannel positions : Front: L C R, Rear: L R, LFE\nSampling rate : 48.0 KHz\nResolution : 16 bits\nStream size : 256 MiB (17%)\n\nPlot:\nScott Pilgrim must defeat his new girlfriend's seven evil exes in order to win her heart.\n\nscreens &lt;a href=&quot;\nhttp://img232.imageshack.us/img232/7223/vlcsnap2010102918h15m47.jpg&quot; rel=&quot;nofollow&quot; target=&quot;_NEW&quot;&gt;\nhttp://img232.imageshack.us/img232/7223/vlcsnap2010102918h15m47.jpg&lt;/a&gt; &lt;a href=&quot;\nhttp://img219.imageshack.us/img219/6028/vlcsnap2010102918h15m40.jpg&quot; rel=&quot;nofollow&quot; target=&quot;_NEW&quot;&gt;\nhttp://img219.imageshack.us/img219/6028/vlcsnap2010102918h15m40.jpg&lt;/a&gt; &lt;a href=&quot;\nhttp://img838.imageshack.us/img838/2259/vlcsnap2010102918h17m18.jpg&quot; rel=&quot;nofollow&quot; target=&quot;_NEW&quot;&gt;\nhttp://img838.imageshack.us/img838/2259/vlcsnap2010102918h17m18.jpg&lt;/a&gt; &lt;a href=&quot;\nhttp://img227.imageshack.us/img227/8955/vlcsnap2010102918h16m32.jpg&quot; rel=&quot;nofollow&quot; target=&quot;_NEW&quot;&gt;\nhttp://img227.imageshack.us/img227/8955/vlcsnap2010102918h16m32.jpg&lt;/a&gt; &lt;a href=&quot;\nhttp://img828.imageshack.us/img828/1512/vlcsnap2010102918h17m12.jpg&quot; rel=&quot;nofollow&quot; target=&quot;_NEW&quot;&gt;\nhttp://img828.imageshack.us/img828/1512/vlcsnap2010102918h17m12.jpg&lt;/a&gt; &lt;a href=&quot;\nhttp://img836.imageshack.us/img836/9273/vlcsnap2010102918h17m55.jpg&quot; rel=&quot;nofollow&quot; target=&quot;_NEW&quot;&gt;\nhttp://img836.imageshack.us/img836/9273/vlcsnap2010102918h17m55.jpg&lt;/a&gt; &lt;a href=&quot;\nhttp://img44.imageshack.us/img44/8679/vlcsnap2010102918h17m25.jpg&quot; rel=&quot;nofollow&quot; target=&quot;_NEW&quot;&gt;\nhttp://img44.imageshack.us/img44/8679/vlcsnap2010102918h17m25.jpg&lt;/a&gt;","torrent":{"xt":"urn:btih:c8172935cf3d7ee3867a48136e949a2cf6fd5ead","amp;dn":"Scott.Pilgrim.Vs.The.World.2010.BRRip.720p.H264.Feel-Free","amp;tr":["udp%3A%2F%2Ftracker.openbittorrent.com%3A80","udp%3A%2F%2Fopen.demonii.com%3A1337","udp%3A%2F%2Ftracker.coppersurfer.tk%3A6969","udp%3A%2F%2Fexodus.desync.com%3A6969"],"infoHash":"c8172935cf3d7ee3867a48136e949a2cf6fd5ead","infoHashBuffer":{"type":"Buffer","data":[200,23,41,53,207,61,126,227,134,122,72,19,110,148,154,44,246,253,94,173]},"announce":[],"urlList":[]}}